<?xml version="1.0" encoding="UTF-8"?>
<svg id="Layer_1" data-name="Layer 1" xmlns="http://www.w3.org/2000/svg" viewBox="0 0 1080 286">
  <defs>
    <style>
      .cls-1 {
        fill: #fff;
      }
    </style>
  </defs>
  <g id="WHITE_minimal" data-name="WHITE minimal">
    <g id="LUNGA">
      <path class="cls-1" d="M126.22,20.31v6.93c-6.85,.23-12.03,1.1-15.55,2.6-3.53,1.51-5.89,4.28-7.1,8.32-1.21,4.04-1.81,10.34-1.81,18.89V235.88c0,6.24,.4,10.92,1.21,14.04,.8,3.12,2.31,5.2,4.53,6.24,2.21,1.04,5.44,1.56,9.67,1.56h9.97c5.23,0,10.87-2.31,16.91-6.93,6.04-4.62,11.93-10.97,17.67-19.06,5.74-8.08,10.72-17.27,14.95-27.55,4.23-10.28,7.25-20.97,9.06-32.06h6.95c-.6,8.32-.91,18.95-.91,31.89,0,6.01,.1,14.73,.3,26.17,.2,11.44,.8,23.28,1.81,35.52-10.27-.46-21.85-.75-34.73-.87-12.89-.11-24.37-.17-34.43-.17h-20.69c-8.36,0-17.42,.06-27.18,.17-9.77,.12-19.63,.23-29.6,.35-9.97,.12-19.38,.29-28.24,.52v-6.93c6.24-.46,10.87-1.39,13.89-2.77,3.02-1.39,5.03-4.16,6.04-8.32,1.01-4.16,1.51-10.4,1.51-18.72V57.05c0-8.55-.51-14.84-1.51-18.89-1.01-4.04-3.07-6.81-6.19-8.32-3.12-1.5-7.7-2.37-13.74-2.6v-6.93c5.84,.23,13.54,.47,23.11,.69,9.56,.23,19.78,.35,30.66,.35,10.07,0,19.93-.11,29.6-.35,9.67-.23,17.62-.46,23.86-.69Z"/>
      <path class="cls-1" d="M402.58,20.31v6.93c-6.04,1.39-10.62,3.81-13.74,7.28-3.12,3.47-5.19,8.84-6.19,16.12-1.01,7.28-1.51,17.5-1.51,30.67v83.53c0,14.33-.86,27.85-2.57,40.55-1.71,12.71-4.98,23.69-9.82,32.92-5.24,9.94-13.04,17.79-23.41,23.57-10.37,5.77-24.21,8.66-41.53,8.66-9.26,0-19.03-1.16-29.3-3.47-10.27-2.31-19.43-6.7-27.48-13.17-6.85-5.77-12.08-12.82-15.71-21.14-3.62-8.32-6.04-18.02-7.25-29.11-1.21-11.09-1.81-23.68-1.81-37.78V57.05c0-8.55-.5-14.84-1.51-18.89-1.01-4.04-3.02-6.81-6.04-8.32-3.02-1.5-7.65-2.37-13.89-2.6v-6.93c5.84,.23,13.54,.47,23.11,.69,9.56,.23,19.58,.35,30.05,.35s20.54-.11,30.2-.35c9.66-.23,17.62-.46,23.86-.69v6.93c-6.85,.23-12.03,1.1-15.55,2.6-3.53,1.51-5.89,4.28-7.1,8.32-1.21,4.04-1.81,10.34-1.81,18.89V198.45c0,11.32,.8,20.85,2.42,28.59,1.61,7.74,3.97,13.92,7.1,18.54,3.12,4.63,7.05,7.92,11.78,9.88,4.73,1.97,10.22,2.95,16.46,2.95,13.49,0,24.06-3.75,31.71-11.26,7.65-7.51,13.09-18.02,16.31-31.54,3.22-13.52,4.83-29.17,4.83-46.96V88.24c0-15.48-.56-27.32-1.66-35.52-1.11-8.2-3.78-14.15-8-17.85-4.23-3.69-11.18-6.24-20.84-7.62v-6.93c4.03,.23,9.26,.47,15.71,.69,6.44,.23,12.48,.35,18.12,.35,4.63,0,9.21-.11,13.74-.35,4.53-.23,8.31-.46,11.33-.69Z"/>
      <path class="cls-1" d="M620.04,20.31v6.93c-6.04,1.39-10.62,3.81-13.74,7.28-3.12,3.47-5.19,8.84-6.19,16.12-1.01,7.28-1.51,17.5-1.51,30.67v184.38c-3.02-.46-6.3-.69-9.82-.69s-7.3,.23-11.33,.69L443.65,97.94v99.81c0,15.48,.55,27.33,1.66,35.52,1.1,8.21,3.82,14.1,8.15,17.68,4.33,3.58,11.22,6.18,20.69,7.8v6.93c-4.03-.46-9.26-.75-15.71-.87-6.45-.11-12.49-.17-18.12-.17-4.43,0-8.96,.06-13.59,.17-4.63,.12-8.46,.4-11.48,.87v-6.93c6.24-1.61,10.87-4.1,13.89-7.45,3.02-3.35,5.03-8.72,6.04-16.12,1.01-7.39,1.51-17.56,1.51-30.5V57.05c0-8.55-.51-14.84-1.51-18.89-1.01-4.04-3.07-6.81-6.19-8.32-3.12-1.5-7.7-2.37-13.74-2.6v-6.93c3.02,.23,6.84,.47,11.48,.69,4.63,.23,9.16,.35,13.59,.35,5.03,0,9.97-.11,14.8-.35,4.83-.23,9.16-.46,12.99-.69l123.53,149.72V88.24c0-15.48-.56-27.32-1.66-35.52-1.11-8.2-3.78-14.15-8-17.85-4.23-3.69-11.17-6.24-20.84-7.62v-6.93c4.02,.23,9.26,.47,15.7,.69,6.44,.23,12.48,.35,18.12,.35,4.63,0,9.21-.11,13.74-.35,4.53-.23,8.31-.46,11.33-.69Z"/>
      <path class="cls-1" d="M753.23,15.46c14.09,0,25.67,2.2,34.73,6.58,9.06,4.39,17.01,9.7,23.86,15.94,2.21,2.08,4.23,3.12,6.04,3.12,3.82,0,6.34-6.93,7.55-20.79h6.95c-.41,9.24-.71,20.51-.91,33.79-.2,13.29-.3,30.9-.3,52.85h-6.95c-1.41-16.64-3.88-30.55-7.4-41.76-3.53-11.2-10.32-20.73-20.39-28.59-4.23-3.23-9.16-5.77-14.8-7.62-5.64-1.85-11.08-2.77-16.31-2.77-11.68,0-21.35,3.64-29,10.92-7.65,7.28-13.74,16.76-18.27,28.42-4.53,11.67-7.75,24.38-9.66,38.12-1.92,13.75-2.87,27.09-2.87,40.03,0,41.59,4.43,71.97,13.29,91.15,8.86,19.18,20.64,28.77,35.34,28.77,3.22,0,6.04-.35,8.46-1.04,2.42-.69,4.53-1.73,6.34-3.12,2.21-1.85,3.82-4.16,4.83-6.93,1.01-2.77,1.51-6.24,1.51-10.4v-34.66c0-11.32-.75-19.76-2.27-25.3-1.51-5.55-4.48-9.36-8.91-11.44-4.43-2.08-10.87-3.23-19.33-3.47v-6.93c4.63,.23,10.27,.41,16.91,.52,6.64,.12,13.59,.23,20.84,.35,7.25,.12,13.89,.17,19.93,.17,9.66,0,18.57-.11,26.73-.35,8.15-.23,14.75-.46,19.78-.69v6.93c-3.43,.23-6.04,1.04-7.85,2.43-1.81,1.39-3.02,4.16-3.62,8.32-.6,4.16-.91,10.52-.91,19.06v68.62h-6.04c-.2-3.93-1.01-8.2-2.42-12.82-1.41-4.62-3.73-6.93-6.95-6.93-1.61,0-3.88,.47-6.8,1.39-2.92,.93-7.5,3.12-13.74,6.58-7.85,4.39-16.16,8.26-24.92,11.61-8.76,3.35-17.47,5.03-26.13,5.03-25.17,0-46.21-4.97-63.12-14.9-16.91-9.93-29.55-24.26-37.9-42.98-8.36-18.71-12.53-41.24-12.53-67.58s4.98-48.52,14.95-67.93c9.97-19.41,23.76-34.54,41.38-45.4,17.62-10.86,37.91-16.29,60.86-16.29Z"/>
      <path class="cls-1" d="M970.09,20.31l73.09,216.26c2.82,7.86,5.84,13.46,9.06,16.81,3.22,3.35,6.14,5.15,8.76,5.37v6.93c-7.25-.46-15.71-.75-25.37-.87-9.66-.11-19.53-.17-29.6-.17s-19.93,.06-28.99,.17c-9.06,.12-16.31,.4-21.75,.87v-6.93c10.27-.46,16.76-2.48,19.48-6.06,2.72-3.58,2.06-11.26-1.96-23.05l-48.32-153.54,6.04-12.13-41.68,124.42c-5.04,15.02-8.11,27.09-9.21,36.22-1.11,9.13-.66,16.12,1.36,20.97,2.01,4.85,5.23,8.2,9.67,10.05,4.43,1.85,9.67,2.89,15.7,3.12v6.93c-7.45-.46-14.15-.75-20.08-.87-5.94-.11-12.44-.17-19.48-.17-3.83,0-7.9,.06-12.23,.17-4.33,.12-8,.4-11.02,.87v-6.93c4.64-.92,9.21-4.33,13.74-10.22,4.53-5.89,9.21-16,14.04-30.33L938.38,20.31c4.83,.47,10.12,.69,15.86,.69s11.02-.23,15.86-.69Zm10.57,145.56v6.93h-90l3.02-6.93h86.99Z"/>
    </g>
  </g>
</svg>