<?xml version="1.0" encoding="UTF-8"?>
<svg id="Layer_2" data-name="Layer 2" xmlns="http://www.w3.org/2000/svg" viewBox="0 0 124.96 119.46">
  <defs>
    <style>
      .cls-1 {
        fill: #b4b4be;
      }
    </style>
  </defs>
  <g id="Layer_1-2" data-name="Layer 1">
    <path class="cls-1" d="M77.73,64.74c1.36,.58,2.76,1.07,4.25,1.24,2.56,.29,3.98-.69,4.49-3.21,.21-1.01,.24-2.07,.33-3.1,.14-1.71,.72-3.27,2.09-4.33,5.63-4.33,11.69-7.67,19.11-7.18,2.88,.19,4.64-1.19,6.05-3.42,.8-1.27,1.33-2.64,1.58-4.12,.51-2.97,1.05-5.94,1.55-8.91,.27-1.59,.88-3.01,1.77-4.38,3.83-5.87,6.13-12.24,6-19.34-.04-2.42-.28-4.84-1.5-7-.76-1.35-1.89-1.31-2.56,.09-.54,1.13-.85,2.38-1.35,3.53-4.35,9.93-10.61,18.54-18.33,26.1-4.03,3.95-8.54,7.23-14.01,8.95-1.22,.39-2.44,.94-2.72-1.09-.04-.33-.42-.64-.7-.89-.91-.81-1.12-1.84-1.01-2.98,.05-.54,.08-1.09,.09-1.63,.02-1.1-.57-1.47-1.59-1.25-1.55,.33-2.85,1.06-3.85,2.33-2.07,2.63-4.19,5.22-6.52,7.63-2.27,2.33-4.91,3.95-8.05,4.89-3.84,1.15-7.71,2.2-11.59,3.19q-4.65,1.19-4.39-3.71c.08-1.53,.34-3.06,.1-4.59-.26-1.59-.98-1.97-2.42-1.25-1.57,.78-2.64,2.13-3.65,3.5-2.59,3.53-4.36,7.48-5.68,11.64-.26,.83-.68,1.41-1.41,1.9-4.96,3.34-9.3,7.37-12.78,12.23-7.76,10.84-13.86,22.62-19.28,34.76C.61,106.89-.04,109.63,0,112.48c.06,3.83,1.09,5.33,4.53,6.58,.33,.02,.65,.05,.98,.07,.55,.32,1.16,.29,1.76,.32,4.96,.22,9.29-1.61,13.4-4.14,0,0,0,0,0,0,.49-.24,.98-.48,1.47-.71,5.37-3.42,10.05-7.63,13.98-12.62,1.17-1.48,2.3-1.59,3.84-.86,1.84,.87,3.75,1.57,5.72,2.07,3.34,.85,6.71,1.25,10.07,.2,3.02-.95,5.4-2.7,6.34-5.89,.66-2.23,.11-3.15-2.11-3.72-1.7-.44-3.42-.81-5.1-1.3-2.08-.61-3.91-1.68-5.54-3.13-.7-.63-.71-1.05-.11-1.73,1.3-1.48,2.56-3,3.8-4.54,1.37-1.69,3.08-2.08,5.15-1.61,3.26,.74,6.56,1.31,9.9,1.52,2.46,.16,3.05-.47,2.37-2.87-.47-1.63-.31-2.98,.65-4.32,.29-.4,.51-.85,.71-1.3,.77-1.67,.36-2.51-1.44-3.06-.83-.25-1.74-.23-2.64-.84,1.68-1.65,3.38-3.19,4.93-4.87,1.5-1.63,3.12-1.81,5.06-.98Z"/>
  </g>
</svg>