<?xml version="1.0" encoding="UTF-8"?>
<svg id="Layer_2" data-name="Layer 2" xmlns="http://www.w3.org/2000/svg" viewBox="0 0 160.68 82.71">
  <defs>
    <style>
      .cls-1 {
        fill: #b4b4be;
      }
    </style>
  </defs>
  <g id="Layer_1-2" data-name="Layer 1">
    <path class="cls-1" d="M159.02,29.21c-1.57-.02-3.09,.24-4.57,.73-4.38,1.44-8.12,3.9-11.39,7.1-.75,.74-1.2,1.13-2.17,.17-6.11-6.02-13.09-10.95-20.25-15.6-5.08-3.3-10.28-6.41-15.43-9.6,.16-.63,.69-.87,1.15-1.19,2.7-1.86,5.89-2.23,8.97-2.95,1.26-.3,3.17-.3,3.22-1.82,.06-1.53-1.87-1.67-3.09-1.99-6.31-1.63-12.72-1.41-19.14-.88-3.02,.25-5.98,1.71-8.98,1.05-9.12-2-18.3-3.43-27.62-3.94-8.89-.49-17.79-.58-26.55,1.42-4.36,.99-8.64,2.23-11.53,6.07-.54,.71-1.36,.67-2.1,.82-3.84,.77-7.72,.66-11.6,.62-1.79-.02-3.46-.04-5.28,.82C1.09,10.78,.22,11.54,.03,13.12c-.2,1.74,.56,3.03,2.16,3.74,1.74,.77,3.48,1.56,5.28,2.15,6.46,2.12,12.66,4.7,18.29,8.61,4.22,2.93,8.56,5.77,13.38,7.65,1.62,.64,2.19,1.56,2.41,3.15,.68,4.86,2.17,9.49,4.6,13.76,3.68,6.49,8.57,11.71,15.68,14.49,.92,.36,2.02,.85,2.81,.14,.84-.75,.24-1.85-.08-2.76-1.19-3.39-2.41-6.77-3.1-10.32-.83-4.29,.03-8.93-2.98-13.09,.03-.06,.05-.12,.09-.18,0,0,0,0,0,0,10.36,1.53,20.28,1.7,30.21,1.63,4.87-.03,9.74,.06,14.61-.03,10.53-.19,20.03,3.38,29.38,7.72,3.85,1.79,5.94,4.56,7.12,8.56,2.99,10.13,7.85,19.02,17.55,24.35,.71,0,1.41-.02,2.12-.03,.39-2.61-1.08-4.65-2.34-6.61-2.82-4.39-3.75-9.08-2.9-14.15,.53-3.13,.27-5.97-2.38-8.48,.01-.12,.04-.23,.08-.34,2.84-.48,2.86-2.37,2.54-4.48-.13-.83-.09-1.69-.19-2.53-.56-4.8,.71-8.92,4.32-12.27,.71-.66,1.33-1.5,1.72-2.38,.56-1.26,.25-2.22-1.4-2.23Z"/>
  </g>
</svg>