<?xml version="1.0" encoding="UTF-8"?>
<svg id="Layer_2" data-name="Layer 2" xmlns="http://www.w3.org/2000/svg" viewBox="0 0 167.11 111.24">
  <defs>
    <style>
      .cls-1 {
        fill: #b4b4be;
      }
    </style>
  </defs>
  <g id="Layer_1-2" data-name="Layer 1">
    <path class="cls-1" d="M146.15,60.14c-3.6-1.1-7.3-1.89-10.95-3.43,.44-.61,.84-1.15,1.22-1.7,6.17-8.91,11.51-18.22,13.59-29.04,.71-3.69,.97-7.44-.68-10.94-1.27-2.68-1.33-5.35-.84-8.14,.14-.79,.27-1.6,.25-2.39-.09-3.73-3.39-5.63-6.61-3.77-1.61,.93-3.12,2.01-4.68,3.03-1.79,1.17-3.65,1.98-5.91,1.81-1.79-.13-3.57,.31-5.26,.95-4.25,1.63-7.19,4.77-9.54,8.49-4.29,6.81-7.34,14.3-11.75,21.05-.92,1.42-1.6,1.46-2.87,.73-3.04-1.74-5.61-4.04-8.11-6.44-4.37-4.21-8.87-8.26-14.31-11.09-3.31-1.72-6.72-3.16-10.89-4.17,2.09,1.89,3.49,3.59,4.66,5.5,2.35,3.85,3.73,8.08,5,12.36,1.15,3.85,2.07,7.78,3.75,11.46,2.61,5.72,6.25,7.43,12.3,5.84,1.52-.4,3.05-.73,4.89-1.17-.43,.88-.68,1.43-.97,1.96-6.34,11.29-14.73,20.9-24.33,29.5-6.7,5.99-14.08,10.9-22.51,14.2-3.41,1.33-6.56,1.15-9.89-.08-4.49-1.67-8.29-4.37-11.92-7.39-3.32-2.77-6.5-5.71-10.15-8.06-6.03-3.87-12.47-4.64-19.64-2.68,.56,.15,.78,.25,1.01,.26,5.01,.26,8.4,2.92,10.75,7.17,1.11,2.01,2.18,4.04,3.33,6.02,2.02,3.47,4.87,5.87,8.89,6.76,2.43,.54,4.89,.42,7.44,.37-3,3.44-3.11,4.9-.76,8.83,.35,.59,.71,1.16,1.04,1.76,.58,1.04,.96,2.12,.19,3.35,3.11,.61,5.61-.22,7.71-2.38,1.26-1.3,2.08-2.91,3.06-4.41,1.72-2.6,3.63-4.87,7.36-3.91,1.41,.36,2.95,.28,4.43,.34,16.81,.71,32.13-4.09,46.44-12.59,8.5-5.05,16.12-11.24,23.08-18.28,3.71,6.06,6.13,7.18,13.24,5.83,3.15-.6,6.26-1.47,9.37-2.25,6.6-1.64,13.22-3.1,20.52-.88-.66-.63-.9-.87-1.15-1.1-5.67-5.39-12.35-9.02-19.81-11.3Z"/>
  </g>
</svg>